<svg width="20" height="20" viewBox="0 0 20 20" fill="none" xmlns="http://www.w3.org/2000/svg">
<g clip-path="url(#clip0_4125_1533)">
<path d="M14.7881 13.3334C15.4472 12.3885 15.8337 11.2394 15.8337 10.0001C15.8337 9.57101 15.7873 9.15275 15.6994 8.75005M5.21257 13.3334C4.5535 12.3886 4.16699 11.2395 4.16699 10.0001C4.16699 6.77842 6.77866 4.16675 10.0003 4.16675C10.3521 4.16675 10.6966 4.19789 11.0312 4.25756M13.7502 6.25008L10.0002 10.0001M18.3337 10.0001C18.3337 14.6025 14.6027 18.3334 10.0003 18.3334C5.39795 18.3334 1.66699 14.6025 1.66699 10.0001C1.66699 5.39771 5.39795 1.66675 10.0003 1.66675C14.6027 1.66675 18.3337 5.39771 18.3337 10.0001ZM10.8337 10.0001C10.8337 10.4603 10.4606 10.8334 10.0003 10.8334C9.54009 10.8334 9.16699 10.4603 9.16699 10.0001C9.16699 9.53984 9.54009 9.16675 10.0003 9.16675C10.4606 9.16675 10.8337 9.53984 10.8337 10.0001Z" stroke="#86A7F8" stroke-width="1.66667" stroke-linecap="round" stroke-linejoin="round"/>
</g>
<defs>
<clipPath id="clip0_4125_1533">
<rect width="20" height="20" fill="white"/>
</clipPath>
</defs>
</svg>
