<svg width="41" height="40" viewBox="0 0 41 40" fill="none" xmlns="http://www.w3.org/2000/svg">
<g clip-path="url(#clip0_4692_43827)">
<path d="M0.5 20C0.5 8.95431 9.45431 0 20.5 0C31.5457 0 40.5 8.95431 40.5 20C40.5 31.0457 31.5457 40 20.5 40C9.45431 40 0.5 31.0457 0.5 20Z" fill="#86A7F8"/>
<path d="M26.3778 28.0902C24.6693 29.3315 22.6117 30 20.4999 30C18.3881 30 16.3305 29.3315 14.6221 28.0902M24.8836 11.0121C26.7817 11.9378 28.338 13.4407 29.3294 15.3053C30.3208 17.1699 30.6965 19.3005 30.4026 21.3917M10.5973 21.3916C10.3034 19.3004 10.6791 17.1698 11.6705 15.3052C12.662 13.4406 14.2182 11.9377 16.1163 11.012M19.9342 14.5657L15.0656 19.4343C14.8676 19.6323 14.7686 19.7313 14.7315 19.8455C14.6989 19.9459 14.6989 20.0541 14.7315 20.1545C14.7686 20.2687 14.8676 20.3677 15.0656 20.5657L19.9342 25.4343C20.1322 25.6323 20.2312 25.7313 20.3454 25.7684C20.4458 25.8011 20.554 25.8011 20.6544 25.7684C20.7686 25.7313 20.8676 25.6323 21.0656 25.4343L25.9342 20.5657C26.1322 20.3677 26.2312 20.2687 26.2683 20.1545C26.301 20.0541 26.301 19.9459 26.2683 19.8455C26.2312 19.7313 26.1322 19.6323 25.9342 19.4343L21.0656 14.5657C20.8676 14.3677 20.7686 14.2687 20.6544 14.2316C20.554 14.199 20.4458 14.199 20.3454 14.2316C20.2312 14.2687 20.1322 14.3677 19.9342 14.5657Z" stroke="white" stroke-width="2" stroke-linecap="round" stroke-linejoin="round"/>
</g>
<defs>
<clipPath id="clip0_4692_43827">
<rect width="40" height="40" fill="white" transform="translate(0.5)"/>
</clipPath>
</defs>
</svg>
