<svg width="280" height="104" viewBox="0 0 280 104" fill="none" xmlns="http://www.w3.org/2000/svg">
<g clip-path="url(#clip0_1522_28759)">
<path d="M0 3.69535C0 1.38715 1.87116 -0.484009 4.17936 -0.484009C6.48756 -0.484009 8.35872 1.38715 8.35872 3.69535V99.8207C8.35872 102.129 6.48756 104 4.17936 104C1.87116 104 0 102.129 0 99.8207V3.69535Z" fill="#86A7F8" fill-opacity="0.4"/>
<path d="M27.0493 37.1302C27.0493 34.822 28.9205 32.9508 31.2287 32.9508C33.5369 32.9508 35.408 34.822 35.408 37.1302V99.8206C35.408 102.129 33.5369 104 31.2287 104C28.9205 104 27.0493 102.129 27.0493 99.8206V37.1302Z" fill="#86A7F8" fill-opacity="0.4"/>
<path d="M54.0986 56.2359C54.0986 53.9277 55.9698 52.0565 58.278 52.0565C60.5862 52.0565 62.4574 53.9277 62.4574 56.2359V99.8206C62.4574 102.129 60.5862 104 58.278 104C55.9698 104 54.0986 102.129 54.0986 99.8206V56.2359Z" fill="#86A7F8" fill-opacity="0.4"/>
<path d="M81.1479 64.5946C81.1479 62.2864 83.0191 60.4153 85.3273 60.4153C87.6355 60.4153 89.5067 62.2864 89.5067 64.5946V99.8207C89.5067 102.129 87.6355 104 85.3273 104C83.0191 104 81.1479 102.129 81.1479 99.8207V64.5946Z" fill="#86A7F8" fill-opacity="0.4"/>
<path d="M108.197 37.1302C108.197 34.822 110.068 32.9508 112.377 32.9508C114.685 32.9508 116.556 34.822 116.556 37.1302V99.8206C116.556 102.129 114.685 104 112.377 104C110.068 104 108.197 102.129 108.197 99.8206V37.1302Z" fill="#86A7F8" fill-opacity="0.4"/>
<path d="M135.247 12.651C135.247 10.3428 137.118 8.47168 139.426 8.47168C141.734 8.47168 143.605 10.3428 143.605 12.651V99.8206C143.605 102.129 141.734 104 139.426 104C137.118 104 135.247 102.129 135.247 99.8206V12.651Z" fill="#86A7F8" fill-opacity="0.4"/>
<path d="M162.296 37.1302C162.296 34.822 164.167 32.9508 166.475 32.9508C168.784 32.9508 170.655 34.822 170.655 37.1302V99.8206C170.655 102.129 168.784 104 166.475 104C164.167 104 162.296 102.129 162.296 99.8206V37.1302Z" fill="#86A7F8" fill-opacity="0.4"/>
<path d="M189.345 37.1302C189.345 34.822 191.217 32.9508 193.525 32.9508C195.833 32.9508 197.704 34.822 197.704 37.1302V99.8206C197.704 102.129 195.833 104 193.525 104C191.217 104 189.345 102.129 189.345 99.8206V37.1302Z" fill="#86A7F8" fill-opacity="0.4"/>
<path d="M216.395 21.6068C216.395 19.2987 218.266 17.4275 220.574 17.4275C222.882 17.4275 224.753 19.2987 224.753 21.6069V99.8206C224.753 102.129 222.882 104 220.574 104C218.266 104 216.395 102.129 216.395 99.8206V21.6068Z" fill="#86A7F8" fill-opacity="0.4"/>
<path d="M243.444 3.69535C243.444 1.38715 245.315 -0.484009 247.623 -0.484009C249.932 -0.484009 251.803 1.38715 251.803 3.69535V99.8207C251.803 102.129 249.932 104 247.623 104C245.315 104 243.444 102.129 243.444 99.8207V3.69535Z" fill="#86A7F8" fill-opacity="0.4"/>
<path d="M270.493 15.0393C270.493 12.7311 272.364 10.86 274.673 10.86C276.981 10.86 278.852 12.7311 278.852 15.0393V99.8207C278.852 102.129 276.981 104 274.673 104C272.364 104 270.493 102.129 270.493 99.8207V15.0393Z" fill="#86A7F8" fill-opacity="0.4"/>
</g>
<defs>
<clipPath id="clip0_1522_28759">
<rect width="280" height="104" fill="white"/>
</clipPath>
</defs>
</svg>
