<svg width="96" height="96" viewBox="0 0 96 96" fill="none" xmlns="http://www.w3.org/2000/svg">
<rect width="96" height="96" rx="48" fill="#356DF3"/>
<path d="M59.7557 64.1803C56.3387 66.6629 52.2236 68 48 68C43.7764 68 39.6612 66.6629 36.2443 64.1803M56.7674 30.0241C60.5636 31.8756 63.6761 34.8814 65.6589 38.6106C67.6418 42.3398 68.3932 46.601 67.8054 50.7835M28.1948 50.7833C27.607 46.6008 28.3584 42.3396 30.3412 38.6104C32.3241 34.8812 35.4366 31.8754 39.2328 30.0239M46.8686 37.1314L37.1314 46.8686C36.7353 47.2646 36.5373 47.4627 36.4632 47.691C36.3979 47.8918 36.3979 48.1082 36.4632 48.309C36.5373 48.5373 36.7353 48.7354 37.1314 49.1314L46.8686 58.8686C47.2646 59.2647 47.4627 59.4627 47.691 59.5368C47.8918 59.6021 48.1082 59.6021 48.309 59.5368C48.5373 59.4627 48.7354 59.2647 49.1314 58.8686L58.8686 49.1314C59.2646 48.7354 59.4627 48.5373 59.5368 48.309C59.6021 48.1082 59.6021 47.8918 59.5368 47.691C59.4627 47.4627 59.2646 47.2646 58.8686 46.8686L49.1314 37.1314C48.7353 36.7354 48.5373 36.5373 48.309 36.4632C48.1082 36.3979 47.8918 36.3979 47.691 36.4632C47.4627 36.5373 47.2646 36.7354 46.8686 37.1314Z" stroke="white" stroke-width="4" stroke-linecap="round" stroke-linejoin="round"/>
</svg>
