<svg width="56" height="56" viewBox="0 0 56 56" fill="none" xmlns="http://www.w3.org/2000/svg">
<g id="Icon 24px">
<path id="Icon" d="M41.7146 46.877C37.7282 49.7733 32.9272 51.3333 27.9996 51.3333C23.0721 51.3333 18.2711 49.7733 14.2846 46.877M38.2283 7.02806C42.6571 9.18814 46.2884 12.6948 48.6017 17.0456C50.9151 21.3963 51.7917 26.3677 51.1059 31.2473M4.89361 31.2471C4.20783 26.3675 5.08442 21.3961 7.39775 17.0454C9.71108 12.6946 13.3424 9.18791 17.7712 7.02783M26.6797 15.3199L15.3196 26.68C14.8575 27.142 14.6265 27.373 14.54 27.6394C14.4639 27.8737 14.4639 28.1261 14.54 28.3604C14.6265 28.6268 14.8575 28.8578 15.3196 29.3199L26.6797 40.68C27.1417 41.142 27.3727 41.373 27.6391 41.4596C27.8734 41.5357 28.1258 41.5357 28.3602 41.4596C28.6265 41.373 28.8575 41.142 29.3196 40.68L40.6797 29.3199C41.1417 28.8578 41.3727 28.6268 41.4593 28.3604C41.5354 28.1261 41.5354 27.8737 41.4593 27.6394C41.3727 27.373 41.1417 27.142 40.6797 26.68L29.3196 15.3199C28.8575 14.8578 28.6265 14.6268 28.3602 14.5403C28.1258 14.4641 27.8734 14.4641 27.6391 14.5403C27.3727 14.6268 27.1417 14.8578 26.6797 15.3199Z" stroke="#356DF3" stroke-width="4.66667" stroke-linecap="round" stroke-linejoin="round"/>
</g>
</svg>
