<svg width="96" height="96" viewBox="0 0 96 96" fill="none" xmlns="http://www.w3.org/2000/svg">
<rect width="96" height="96" rx="16" fill="#F5F5F7"/>
<path d="M17.0363 48.0246C17.0363 43.3326 17.0499 38.6406 17.0227 33.9441C17.0181 33.0323 17.2494 32.4 18.0383 31.8364C20.5592 30.0311 23.0076 28.125 25.4922 26.2647C26.4897 25.5178 26.6892 25.5132 27.6776 26.2463C32.6696 29.9348 37.657 33.6234 42.6444 37.3164C46.1764 39.9282 49.7084 42.5399 53.2359 45.1517C53.9069 45.6465 54.5689 46.1505 55.2354 46.6454C55.6933 46.9845 55.8293 47.296 55.2762 47.7038C52.4787 49.7795 49.6903 51.8689 46.9019 53.9537C46.4349 54.3019 46.0177 54.2561 45.5643 53.9124C41.8827 51.122 38.1965 48.3407 34.5104 45.5549C32.3975 43.9603 30.2892 42.3566 28.1628 40.7759C27.5688 40.3314 27.2832 40.4734 27.2378 41.2249C27.197 41.9076 27.2287 42.5995 27.2287 43.2868C27.2287 46.989 27.265 50.6913 27.2197 54.389C27.2106 55.3787 27.5552 55.9835 28.3532 56.5517C30.7834 58.2883 33.1411 60.1302 35.5396 61.9126C37.6343 63.4705 39.7381 65.0192 41.8555 66.545C44.4263 68.3961 44.4353 68.387 44.4399 71.631C44.4399 75.1775 44.449 78.7286 44.449 82.275C44.449 82.4675 44.458 82.6553 44.449 82.8478C44.4263 83.141 44.5487 83.5076 44.2268 83.6771C43.9003 83.8512 43.6691 83.558 43.4333 83.3839C41.9734 82.3025 40.518 81.212 39.0625 80.1261C34.5421 76.7537 30.0217 73.3859 25.5104 70.0044C22.8761 68.0296 20.2736 66.0043 17.6257 64.0432C17.0317 63.6034 17 63.0627 17 62.4441C17 57.6376 17 52.8311 17 48.02H17.0317L17.0363 48.0246Z" fill="url(#paint0_linear_5954_24323)"/>
<path d="M47.5977 71.5165C47.5977 67.1682 47.6158 62.8198 47.5841 58.4715C47.5796 57.5597 47.7972 56.9274 48.5861 56.3592C51.6466 54.1415 54.6572 51.8505 57.6632 49.555C58.23 49.1197 58.6607 49.1976 59.1776 49.587C61.4174 51.2686 63.6663 52.9365 65.9152 54.6089C66.432 54.9938 66.9398 55.3878 67.4749 55.7498C68.0733 56.1576 68.223 56.0843 68.2366 55.3054C68.2638 53.8162 68.2456 52.3316 68.2456 50.8425C68.2456 48.1345 68.2683 45.4266 68.2411 42.7186C68.232 41.9947 68.4633 41.4861 69.0346 41.0691C71.6824 39.1126 74.3212 37.1377 76.9646 35.1812C77.1958 35.0071 77.4406 34.6818 77.7444 34.8101C78.1343 34.975 77.9847 35.4103 77.9847 35.7311C77.9983 41.9488 77.9847 48.1666 78.0119 54.3798C78.021 56.9732 77.8714 59.5666 78.1525 62.1509C78.2568 63.1268 77.9076 63.7958 77.1096 64.3686C74.4708 66.2747 71.8774 68.2403 69.2613 70.1785C68.2774 70.9071 68.1776 70.8704 67.1983 70.1235C64.6094 68.1533 62.0023 66.2014 59.3998 64.2448C59.1957 64.089 59.0008 63.8095 58.7197 63.9149C58.3569 64.0524 58.4703 64.4327 58.4703 64.7214C58.4658 68.8039 58.4386 72.8819 58.493 76.9645C58.5066 77.8717 58.2119 78.4445 57.5045 78.9668C54.5756 81.1158 51.6829 83.3151 48.7766 85.4916C48.5952 85.629 48.4093 85.7619 48.2189 85.881C47.8698 86.101 47.6385 86.0231 47.6022 85.5878C47.575 85.2854 47.5841 84.9784 47.5841 84.6714C47.5841 80.2864 47.5841 75.8969 47.5841 71.5119H47.6022L47.5977 71.5165Z" fill="#86A7F8"/>
<path d="M37.1857 23.4925C37.1857 21.8521 37.2129 20.2118 37.1721 18.5714C37.154 17.8062 37.417 17.3159 38.0427 16.8577C40.5727 15.002 43.0664 13.0913 45.5646 11.1898C46.0452 10.8232 46.6074 10.5941 47.0563 10.168C47.4372 9.80146 47.8362 10.113 48.1762 10.3605C49.278 11.1577 50.3707 11.9687 51.4724 12.7706C54.0432 14.6401 56.5687 16.5645 59.1576 18.411C62.1999 20.5875 65.1697 22.8739 68.1758 25.1099C70.7556 27.0298 73.3446 28.9405 75.9244 30.8649C76.8584 31.5614 76.8539 31.5751 75.9471 32.2624C73.1677 34.361 70.3838 36.4504 67.5954 38.5398C66.5435 39.3279 66.2941 39.282 65.0292 38.3152C62.1727 36.1342 59.3072 33.9623 56.4372 31.7951C53.8392 29.834 51.2321 27.882 48.6296 25.9255C48.3349 25.7056 48.0629 25.3482 47.6412 25.591C47.2875 25.7972 47.3692 26.1959 47.3692 26.5258C47.3646 29.5407 47.3692 32.5511 47.3601 35.566C47.3601 35.9372 47.5278 36.4504 47.2014 36.6428C46.7661 36.904 46.4759 36.3633 46.1722 36.1388C43.411 34.0861 40.6815 31.9875 37.9157 29.9439C37.3626 29.5361 37.1585 29.0779 37.1676 28.409C37.1993 26.7686 37.1767 25.1282 37.1767 23.4879H37.1857V23.4925Z" fill="url(#paint1_linear_5954_24323)"/>
<defs>
<linearGradient id="paint0_linear_5954_24323" x1="56.8958" y1="10.0001" x2="56.8958" y2="39.0896" gradientUnits="userSpaceOnUse">
<stop stop-color="#356DF3"/>
<stop offset="1" stop-color="#1F3F8D"/>
</linearGradient>
<linearGradient id="paint1_linear_5954_24323" x1="56.8958" y1="10.0001" x2="56.8958" y2="39.0896" gradientUnits="userSpaceOnUse">
<stop stop-color="#356DF3"/>
<stop offset="1" stop-color="#1F3F8D"/>
</linearGradient>
</defs>
</svg>
