<svg width="24" height="24" viewBox="0 0 24 24" fill="none" xmlns="http://www.w3.org/2000/svg">
<g clip-path="url(#clip0_4431_4259)">
<path fill-rule="evenodd" clip-rule="evenodd" d="M1.44364 10.5423C7.08077 8.08626 10.8397 6.46714 12.7205 5.68485C18.0907 3.45124 19.2065 3.06325 19.9338 3.05043C20.0938 3.04762 20.4515 3.08726 20.6831 3.27525C20.8787 3.43399 20.9326 3.64842 20.9583 3.79892C20.9841 3.94942 21.0161 4.29226 20.9907 4.56016C20.6996 7.61781 19.4405 15.0379 18.7999 18.4624C18.5288 19.9115 17.9951 20.3974 17.4784 20.445C16.3554 20.5483 15.5027 19.7029 14.4151 18.9899C12.7132 17.8743 11.7517 17.1798 10.0997 16.0912C8.19053 14.833 9.42817 14.1415 10.5162 13.0115C10.801 12.7158 15.7487 8.21548 15.8444 7.80718C15.8564 7.75618 15.8675 7.56583 15.7544 7.46533C15.6414 7.36483 15.4745 7.3992 15.3541 7.42654C15.1834 7.46527 12.4646 9.26233 7.19761 12.8176C6.42588 13.3476 5.72687 13.6057 5.10058 13.5922C4.41015 13.5773 3.08204 13.2019 2.09473 12.8809C0.88374 12.4873 -0.0787215 12.2791 0.00508745 11.6107C0.0487404 11.2624 0.528258 10.9063 1.44364 10.5423Z" fill="#356DF3"/>
</g>
<defs>
<clipPath id="clip0_4431_4259">
<rect width="24" height="24" fill="white"/>
</clipPath>
</defs>
</svg>
